<svg width="40" height="40" viewBox="0 0 40 40" fill="none" xmlns="http://www.w3.org/2000/svg">
<path d="M28.3333 28.3333C29.0278 28.3333 29.618 28.0902 30.1042 27.6041C30.5903 27.118 30.8333 26.5277 30.8333 25.8333C30.8333 25.1388 30.5903 24.5485 30.1042 24.0624C29.618 23.5763 29.0278 23.3333 28.3333 23.3333C27.6389 23.3333 27.0486 23.5763 26.5625 24.0624C26.0764 24.5485 25.8333 25.1388 25.8333 25.8333C25.8333 26.5277 26.0764 27.118 26.5625 27.6041C27.0486 28.0902 27.6389 28.3333 28.3333 28.3333ZM28.3333 33.3333C29.1944 33.3333 29.9861 33.1319 30.7083 32.7291C31.4305 32.3263 32.0139 31.7916 32.4583 31.1249C31.8472 30.7638 31.1944 30.486 30.5 30.2916C29.8055 30.0971 29.0833 29.9999 28.3333 29.9999C27.5833 29.9999 26.8611 30.0971 26.1667 30.2916C25.4722 30.486 24.8194 30.7638 24.2083 31.1249C24.6528 31.7916 25.2361 32.3263 25.9583 32.7291C26.6805 33.1319 27.4722 33.3333 28.3333 33.3333ZM20 36.6666C16.1389 35.6944 12.9514 33.4791 10.4375 30.0208C7.9236 26.5624 6.66666 22.7221 6.66666 18.4999V8.33325L20 3.33325L33.3333 8.33325V17.7916C32.8055 17.5694 32.2639 17.368 31.7083 17.1874C31.1528 17.0069 30.5833 16.8749 30 16.7916V10.6666L20 6.91658L9.99999 10.6666V18.4999C9.99999 19.8055 10.1736 21.111 10.5208 22.4166C10.868 23.7221 11.3542 24.9652 11.9792 26.1458C12.6042 27.3263 13.3611 28.4166 14.25 29.4166C15.1389 30.4166 16.125 31.2499 17.2083 31.9166C17.5139 32.8055 17.9167 33.6527 18.4167 34.4583C18.9167 35.2638 19.4861 35.986 20.125 36.6249C20.0972 36.6249 20.0764 36.6319 20.0625 36.6457C20.0486 36.6596 20.0278 36.6666 20 36.6666ZM28.3333 36.6666C26.0278 36.6666 24.0625 35.8541 22.4375 34.2291C20.8125 32.6041 20 30.6388 20 28.3333C20 26.0277 20.8125 24.0624 22.4375 22.4374C24.0625 20.8124 26.0278 19.9999 28.3333 19.9999C30.6389 19.9999 32.6042 20.8124 34.2292 22.4374C35.8542 24.0624 36.6667 26.0277 36.6667 28.3333C36.6667 30.6388 35.8542 32.6041 34.2292 34.2291C32.6042 35.8541 30.6389 36.6666 28.3333 36.6666Z" fill="#C5C5C5"/>
</svg>
