<svg width="30" height="30" viewBox="0 0 30 30" fill="none" xmlns="http://www.w3.org/2000/svg">
<path fill-rule="evenodd" clip-rule="evenodd" d="M7.5 21.1687L9.375 19.2937V21.9562L7.21875 24.0937L5.625 23.4375V18.75H2.8125L1.875 17.8125V2.8125L2.8125 1.875H25.3125L26.25 2.8125V11.25H24.375V3.75H3.75V16.875H6.5625L7.5 17.8125V21.1687ZM19.2937 24.375L22.7812 27.8437L24.375 27.1875V24.375H27.1875L28.125 23.4375V14.0625L27.1875 13.125H12.1875L11.25 14.0625V23.4375L12.1875 24.375H19.2937ZM19.6875 22.5H13.125V15H26.25V22.5H23.4375L22.5 23.4375V24.9187L20.3437 22.7812L19.6875 22.5Z" fill="#C5C5C5"/>
</svg>
