<svg width="30" height="30" viewBox="0 0 30 30" fill="none" xmlns="http://www.w3.org/2000/svg">
<path fill-rule="evenodd" clip-rule="evenodd" d="M4.37492 10.3231C5.29995 9.70502 6.38748 9.37512 7.5 9.37512C8.99185 9.37512 10.4226 9.96775 11.4775 11.0226C12.5324 12.0775 13.125 13.5083 13.125 15.0001C13.125 16.1126 12.7951 17.2002 12.177 18.1252C11.5589 19.0502 10.6804 19.7712 9.6526 20.1969C8.62476 20.6227 7.49376 20.7341 6.40262 20.517C5.31148 20.3 4.3092 19.7643 3.52253 18.9776C2.73586 18.1909 2.20013 17.1886 1.98309 16.0975C1.76604 15.0064 1.87744 13.8754 2.30318 12.8475C2.72892 11.8197 3.44989 10.9412 4.37492 10.3231ZM9.39375 11.7807C8.82146 11.4374 8.1674 11.2541 7.5 11.2501C6.83865 11.2462 6.18815 11.4183 5.61527 11.7487C5.04239 12.0792 4.56774 12.5562 4.24005 13.1306C3.91235 13.7051 3.7434 14.3564 3.75053 15.0177C3.75766 15.6791 3.94062 16.3266 4.28063 16.8939L9.39375 11.7807ZM5.60625 18.2195C6.17854 18.5629 6.83261 18.7462 7.5 18.7501C8.16136 18.7541 8.81185 18.582 9.38473 18.2515C9.95762 17.921 10.4323 17.4441 10.76 16.8696C11.0877 16.2951 11.2566 15.6438 11.2495 14.9825C11.2423 14.3212 11.0594 13.6736 10.7194 13.1064L5.60625 18.2195ZM26.2497 9.37515V13.0952C26.2497 13.3439 26.1509 13.5823 25.9751 13.7581C25.7993 13.934 25.5608 14.0327 25.3122 14.0327H17.5628L20.6247 10.9709L19.2991 9.64523L15.3222 13.6221L14.5297 14.4146V15.4808L19.2991 20.2502L20.6247 18.9246L17.6078 15.9077H25.3122C26.0581 15.9077 26.7735 15.6114 27.3009 15.084C27.8284 14.5565 28.1247 13.8412 28.1247 13.0952V9.37515H26.2497Z" fill="#C5C5C5"/>
</svg>
