<svg width="23" height="23" viewBox="0 0 23 23" fill="none" xmlns="http://www.w3.org/2000/svg">
<path d="M8.79668 15.9842H9.90606L17.0309 8.85933L15.9215 7.74996L9.35918 14.3279L6.35935 11.3281L5.24998 12.4374L8.79668 15.9842Z" fill="#89D185"/>
<path fill-rule="evenodd" clip-rule="evenodd" d="M12.4375 0.5625C14.9375 0.71875 17.2812 1.96875 19 3.6875C21.0312 5.875 22.125 8.53125 22.125 11.6562C22.125 14.1563 21.1875 16.5 19.625 18.5313C18.0625 20.4063 15.875 21.8125 13.375 22.2812C10.875 22.75 8.37497 22.4375 6.18747 21.1875C3.99997 19.9375 2.28122 18.0625 1.34372 15.7188C0.406223 13.375 0.249973 10.7187 1.03122 8.375C1.81247 5.875 3.21872 3.84375 5.40622 2.4375C7.43747 1.03125 9.93747 0.40625 12.4375 0.5625ZM13.2187 20.7187C15.25 20.25 17.125 19.1563 18.5312 17.4375C19.7812 15.7188 20.5625 13.6875 20.4062 11.5C20.4062 9 19.4687 6.5 17.75 4.78125C16.1875 3.21875 14.3125 2.28125 12.125 2.125C10.0937 1.96875 7.90622 2.4375 6.18747 3.6875C4.46872 4.9375 3.21872 6.65625 2.59372 8.84375C1.96872 10.875 1.96872 13.0625 2.90622 15.0938C3.84372 17.125 5.24997 18.6875 7.12497 19.7813C8.99997 20.875 11.1875 21.1875 13.2187 20.7187Z" fill="#89D185"/>
</svg>
