<svg width="39" height="42" viewBox="0 0 39 42" fill="none" xmlns="http://www.w3.org/2000/svg">
<path fill-rule="evenodd" clip-rule="evenodd" d="M3.375 3.75H19.5V13.8125L20.8438 15.25H30.25V18.125H32.9375V11.8L32.5344 10.765L23.7194 1.2775L22.7788 0.875H2.03125L0.6875 2.3125V39.6875L2.03125 41.125H11.4375V38.25H3.375V3.75ZM22.1875 3.75L30.25 12.375H22.1875V3.75ZM36.9688 21H15.4688L14.125 22.4375V39.6875L15.4688 41.125H36.9688L38.3125 39.6875V22.4375L36.9688 21ZM35.625 23.875V35.375L31.2444 30.775H29.3363L26.2188 34.1387L20.4944 28.015H18.5863L16.8125 29.9125V23.875H35.625ZM28.1 36.1513L30.2769 33.8225L34.4156 38.25H30.0619L28.1 36.1513ZM16.8125 38.25V33.9663L19.5 31.0913L26.2725 38.25H16.8125ZM31.5938 28.1875C32.3359 28.1875 32.9375 27.5439 32.9375 26.75C32.9375 25.9561 32.3359 25.3125 31.5938 25.3125C30.8516 25.3125 30.25 25.9561 30.25 26.75C30.25 27.5439 30.8516 28.1875 31.5938 28.1875Z" fill="#C5C5C5"/>
</svg>
