<svg width="36" height="36" viewBox="0 0 36 36" fill="none" xmlns="http://www.w3.org/2000/svg">
<path d="M20.75 9L19.5 3H16.5L15.25 9L13.5 9.75L8.5 6.5L6.25 8.5L9.5 13.5L9 15.25L3 16.5V19.5L9 20.75L9.75 22.75L6.5 27.75L8.5 29.75L13.5 26.5L15.5 27.25L16.5 33H19.5L20.75 27L22.75 26.25L27.75 29.5L29.75 27.5L26.5 22.5L27.25 20.5L33 19.5V16.5L27 15.25L26.25 13.25L29.5 8.25L27.5 6.25L22.5 9.5L20.75 9ZM21.5 0.5L22.75 6.5L28 3.25L33 8.25L29.5 13.5L35.5 14.5V21.5L29.5 22.75L33 28L28 33L22.75 29.5L21.5 35.5H14.5L13.25 29.5L8 32.75L3 27.75L6.5 22.5L0.5 21.5V14.5L6.5 13.25L3.25 8L8.25 3L13.5 6.5L14.5 0.5H21.5ZM23 18C23 20.75 20.75 23 18 23C15.25 23 13 20.75 13 18C13 15.25 15.25 13 18 13C20.75 13 23 15.25 23 18ZM18 20.5C19.5 20.5 20.5 19.5 20.5 18C20.5 16.5 19.5 15.5 18 15.5C16.5 15.5 15.5 16.5 15.5 18C15.5 19.5 16.5 20.5 18 20.5Z" fill="#C5C5C5"/>
</svg>
